<?xml version="1.0" encoding="utf-8"?>
<svg xmlns="http://www.w3.org/2000/svg" xmlns:xlink="http://www.w3.org/1999/xlink" width="600" height="400" viewBox="0 0 2400 1600">
<defs>
  <clipPath id="clip170">
    <rect x="0" y="0" width="2400" height="1600"/>
  </clipPath>
</defs>
<path clip-path="url(#clip170)" d="M0 1600 L2400 1600 L2400 8.88178e-14 L0 8.88178e-14  Z" fill="#ffffff" fill-rule="evenodd" fill-opacity="1"/>
<defs>
  <clipPath id="clip171">
    <rect x="480" y="0" width="1681" height="1600"/>
  </clipPath>
</defs>
<path clip-path="url(#clip170)" d="M202.227 1423.18 L2352.76 1423.18 L2352.76 47.2441 L202.227 47.2441  Z" fill="#ffffff" fill-rule="evenodd" fill-opacity="1"/>
<defs>
  <clipPath id="clip172">
    <rect x="202" y="47" width="2152" height="1377"/>
  </clipPath>
</defs>
<polyline clip-path="url(#clip172)" style="stroke:#000000; stroke-linecap:round; stroke-linejoin:round; stroke-width:2; stroke-opacity:0.1; fill:none" points="258.131,1423.18 258.131,47.2441 "/>
<polyline clip-path="url(#clip172)" style="stroke:#000000; stroke-linecap:round; stroke-linejoin:round; stroke-width:2; stroke-opacity:0.1; fill:none" points="754.17,1423.18 754.17,47.2441 "/>
<polyline clip-path="url(#clip172)" style="stroke:#000000; stroke-linecap:round; stroke-linejoin:round; stroke-width:2; stroke-opacity:0.1; fill:none" points="1250.21,1423.18 1250.21,47.2441 "/>
<polyline clip-path="url(#clip172)" style="stroke:#000000; stroke-linecap:round; stroke-linejoin:round; stroke-width:2; stroke-opacity:0.1; fill:none" points="1746.25,1423.18 1746.25,47.2441 "/>
<polyline clip-path="url(#clip172)" style="stroke:#000000; stroke-linecap:round; stroke-linejoin:round; stroke-width:2; stroke-opacity:0.1; fill:none" points="2242.29,1423.18 2242.29,47.2441 "/>
<polyline clip-path="url(#clip172)" style="stroke:#000000; stroke-linecap:round; stroke-linejoin:round; stroke-width:2; stroke-opacity:0.1; fill:none" points="202.227,1169.21 2352.76,1169.21 "/>
<polyline clip-path="url(#clip172)" style="stroke:#000000; stroke-linecap:round; stroke-linejoin:round; stroke-width:2; stroke-opacity:0.1; fill:none" points="202.227,801.663 2352.76,801.663 "/>
<polyline clip-path="url(#clip172)" style="stroke:#000000; stroke-linecap:round; stroke-linejoin:round; stroke-width:2; stroke-opacity:0.1; fill:none" points="202.227,434.12 2352.76,434.12 "/>
<polyline clip-path="url(#clip172)" style="stroke:#000000; stroke-linecap:round; stroke-linejoin:round; stroke-width:2; stroke-opacity:0.1; fill:none" points="202.227,66.5766 2352.76,66.5766 "/>
<polyline clip-path="url(#clip170)" style="stroke:#000000; stroke-linecap:round; stroke-linejoin:round; stroke-width:4; stroke-opacity:1; fill:none" points="202.227,1423.18 2352.76,1423.18 "/>
<polyline clip-path="url(#clip170)" style="stroke:#000000; stroke-linecap:round; stroke-linejoin:round; stroke-width:4; stroke-opacity:1; fill:none" points="258.131,1423.18 258.131,1404.28 "/>
<polyline clip-path="url(#clip170)" style="stroke:#000000; stroke-linecap:round; stroke-linejoin:round; stroke-width:4; stroke-opacity:1; fill:none" points="754.17,1423.18 754.17,1404.28 "/>
<polyline clip-path="url(#clip170)" style="stroke:#000000; stroke-linecap:round; stroke-linejoin:round; stroke-width:4; stroke-opacity:1; fill:none" points="1250.21,1423.18 1250.21,1404.28 "/>
<polyline clip-path="url(#clip170)" style="stroke:#000000; stroke-linecap:round; stroke-linejoin:round; stroke-width:4; stroke-opacity:1; fill:none" points="1746.25,1423.18 1746.25,1404.28 "/>
<polyline clip-path="url(#clip170)" style="stroke:#000000; stroke-linecap:round; stroke-linejoin:round; stroke-width:4; stroke-opacity:1; fill:none" points="2242.29,1423.18 2242.29,1404.28 "/>
<path clip-path="url(#clip170)" d="M258.131 1454.1 Q254.52 1454.1 252.691 1457.66 Q250.886 1461.2 250.886 1468.33 Q250.886 1475.44 252.691 1479.01 Q254.52 1482.55 258.131 1482.55 Q261.765 1482.55 263.571 1479.01 Q265.4 1475.44 265.4 1468.33 Q265.4 1461.2 263.571 1457.66 Q261.765 1454.1 258.131 1454.1 M258.131 1450.39 Q263.941 1450.39 266.997 1455 Q270.075 1459.58 270.075 1468.33 Q270.075 1477.06 266.997 1481.67 Q263.941 1486.25 258.131 1486.25 Q252.321 1486.25 249.242 1481.67 Q246.187 1477.06 246.187 1468.33 Q246.187 1459.58 249.242 1455 Q252.321 1450.39 258.131 1450.39 Z" fill="#000000" fill-rule="nonzero" fill-opacity="1" /><path clip-path="url(#clip170)" d="M713.777 1481.64 L721.416 1481.64 L721.416 1455.28 L713.106 1456.95 L713.106 1452.69 L721.37 1451.02 L726.045 1451.02 L726.045 1481.64 L733.684 1481.64 L733.684 1485.58 L713.777 1485.58 L713.777 1481.64 Z" fill="#000000" fill-rule="nonzero" fill-opacity="1" /><path clip-path="url(#clip170)" d="M753.129 1454.1 Q749.518 1454.1 747.689 1457.66 Q745.883 1461.2 745.883 1468.33 Q745.883 1475.44 747.689 1479.01 Q749.518 1482.55 753.129 1482.55 Q756.763 1482.55 758.568 1479.01 Q760.397 1475.44 760.397 1468.33 Q760.397 1461.2 758.568 1457.66 Q756.763 1454.1 753.129 1454.1 M753.129 1450.39 Q758.939 1450.39 761.994 1455 Q765.073 1459.58 765.073 1468.33 Q765.073 1477.06 761.994 1481.67 Q758.939 1486.25 753.129 1486.25 Q747.318 1486.25 744.24 1481.67 Q741.184 1477.06 741.184 1468.33 Q741.184 1459.58 744.24 1455 Q747.318 1450.39 753.129 1450.39 Z" fill="#000000" fill-rule="nonzero" fill-opacity="1" /><path clip-path="url(#clip170)" d="M783.291 1454.1 Q779.679 1454.1 777.851 1457.66 Q776.045 1461.2 776.045 1468.33 Q776.045 1475.44 777.851 1479.01 Q779.679 1482.55 783.291 1482.55 Q786.925 1482.55 788.73 1479.01 Q790.559 1475.44 790.559 1468.33 Q790.559 1461.2 788.73 1457.66 Q786.925 1454.1 783.291 1454.1 M783.291 1450.39 Q789.101 1450.39 792.156 1455 Q795.235 1459.58 795.235 1468.33 Q795.235 1477.06 792.156 1481.67 Q789.101 1486.25 783.291 1486.25 Q777.48 1486.25 774.402 1481.67 Q771.346 1477.06 771.346 1468.33 Q771.346 1459.58 774.402 1455 Q777.48 1450.39 783.291 1450.39 Z" fill="#000000" fill-rule="nonzero" fill-opacity="1" /><path clip-path="url(#clip170)" d="M1213.9 1481.64 L1230.22 1481.64 L1230.22 1485.58 L1208.28 1485.58 L1208.28 1481.64 Q1210.94 1478.89 1215.52 1474.26 Q1220.13 1469.61 1221.31 1468.27 Q1223.55 1465.74 1224.43 1464.01 Q1225.34 1462.25 1225.34 1460.56 Q1225.34 1457.8 1223.39 1456.07 Q1221.47 1454.33 1218.37 1454.33 Q1216.17 1454.33 1213.72 1455.09 Q1211.29 1455.86 1208.51 1457.41 L1208.51 1452.69 Q1211.33 1451.55 1213.79 1450.97 Q1216.24 1450.39 1218.28 1450.39 Q1223.65 1450.39 1226.84 1453.08 Q1230.04 1455.77 1230.04 1460.26 Q1230.04 1462.39 1229.23 1464.31 Q1228.44 1466.2 1226.33 1468.8 Q1225.75 1469.47 1222.65 1472.69 Q1219.55 1475.88 1213.9 1481.64 Z" fill="#000000" fill-rule="nonzero" fill-opacity="1" /><path clip-path="url(#clip170)" d="M1250.04 1454.1 Q1246.42 1454.1 1244.6 1457.66 Q1242.79 1461.2 1242.79 1468.33 Q1242.79 1475.44 1244.6 1479.01 Q1246.42 1482.55 1250.04 1482.55 Q1253.67 1482.55 1255.48 1479.01 Q1257.3 1475.44 1257.3 1468.33 Q1257.3 1461.2 1255.48 1457.66 Q1253.67 1454.1 1250.04 1454.1 M1250.04 1450.39 Q1255.85 1450.39 1258.9 1455 Q1261.98 1459.58 1261.98 1468.33 Q1261.98 1477.06 1258.9 1481.67 Q1255.85 1486.25 1250.04 1486.25 Q1244.23 1486.25 1241.15 1481.67 Q1238.09 1477.06 1238.09 1468.33 Q1238.09 1459.58 1241.15 1455 Q1244.23 1450.39 1250.04 1450.39 Z" fill="#000000" fill-rule="nonzero" fill-opacity="1" /><path clip-path="url(#clip170)" d="M1280.2 1454.1 Q1276.59 1454.1 1274.76 1457.66 Q1272.95 1461.2 1272.95 1468.33 Q1272.95 1475.44 1274.76 1479.01 Q1276.59 1482.55 1280.2 1482.55 Q1283.83 1482.55 1285.64 1479.01 Q1287.47 1475.44 1287.47 1468.33 Q1287.47 1461.2 1285.64 1457.66 Q1283.83 1454.1 1280.2 1454.1 M1280.2 1450.39 Q1286.01 1450.39 1289.06 1455 Q1292.14 1459.58 1292.14 1468.33 Q1292.14 1477.06 1289.06 1481.67 Q1286.01 1486.25 1280.2 1486.25 Q1274.39 1486.25 1271.31 1481.67 Q1268.25 1477.06 1268.25 1468.33 Q1268.25 1459.58 1271.31 1455 Q1274.39 1450.39 1280.2 1450.39 Z" fill="#000000" fill-rule="nonzero" fill-opacity="1" /><path clip-path="url(#clip170)" d="M1720.01 1466.95 Q1723.37 1467.66 1725.24 1469.93 Q1727.14 1472.2 1727.14 1475.53 Q1727.14 1480.65 1723.62 1483.45 Q1720.1 1486.25 1713.62 1486.25 Q1711.45 1486.25 1709.13 1485.81 Q1706.84 1485.39 1704.39 1484.54 L1704.39 1480.02 Q1706.33 1481.16 1708.64 1481.74 Q1710.96 1482.32 1713.48 1482.32 Q1717.88 1482.32 1720.17 1480.58 Q1722.49 1478.84 1722.49 1475.53 Q1722.49 1472.48 1720.33 1470.77 Q1718.2 1469.03 1714.39 1469.03 L1710.36 1469.03 L1710.36 1465.19 L1714.57 1465.19 Q1718.02 1465.19 1719.85 1463.82 Q1721.68 1462.43 1721.68 1459.84 Q1721.68 1457.18 1719.78 1455.77 Q1717.9 1454.33 1714.39 1454.33 Q1712.46 1454.33 1710.27 1454.75 Q1708.07 1455.16 1705.43 1456.04 L1705.43 1451.88 Q1708.09 1451.14 1710.4 1450.77 Q1712.74 1450.39 1714.8 1450.39 Q1720.13 1450.39 1723.23 1452.83 Q1726.33 1455.23 1726.33 1459.35 Q1726.33 1462.22 1724.69 1464.21 Q1723.04 1466.18 1720.01 1466.95 Z" fill="#000000" fill-rule="nonzero" fill-opacity="1" /><path clip-path="url(#clip170)" d="M1746.01 1454.1 Q1742.39 1454.1 1740.57 1457.66 Q1738.76 1461.2 1738.76 1468.33 Q1738.76 1475.44 1740.57 1479.01 Q1742.39 1482.55 1746.01 1482.55 Q1749.64 1482.55 1751.45 1479.01 Q1753.27 1475.44 1753.27 1468.33 Q1753.27 1461.2 1751.45 1457.66 Q1749.64 1454.1 1746.01 1454.1 M1746.01 1450.39 Q1751.82 1450.39 1754.87 1455 Q1757.95 1459.58 1757.95 1468.33 Q1757.95 1477.06 1754.87 1481.67 Q1751.82 1486.25 1746.01 1486.25 Q1740.2 1486.25 1737.12 1481.67 Q1734.06 1477.06 1734.06 1468.33 Q1734.06 1459.58 1737.12 1455 Q1740.2 1450.39 1746.01 1450.39 Z" fill="#000000" fill-rule="nonzero" fill-opacity="1" /><path clip-path="url(#clip170)" d="M1776.17 1454.1 Q1772.56 1454.1 1770.73 1457.66 Q1768.92 1461.2 1768.92 1468.33 Q1768.92 1475.44 1770.73 1479.01 Q1772.56 1482.55 1776.17 1482.55 Q1779.8 1482.55 1781.61 1479.01 Q1783.44 1475.44 1783.44 1468.33 Q1783.44 1461.2 1781.61 1457.66 Q1779.8 1454.1 1776.17 1454.1 M1776.17 1450.39 Q1781.98 1450.39 1785.03 1455 Q1788.11 1459.58 1788.11 1468.33 Q1788.11 1477.06 1785.03 1481.67 Q1781.98 1486.25 1776.17 1486.25 Q1770.36 1486.25 1767.28 1481.67 Q1764.22 1477.06 1764.22 1468.33 Q1764.22 1459.58 1767.28 1455 Q1770.36 1450.39 1776.17 1450.39 Z" fill="#000000" fill-rule="nonzero" fill-opacity="1" /><path clip-path="url(#clip170)" d="M2215.38 1455.09 L2203.57 1473.54 L2215.38 1473.54 L2215.38 1455.09 M2214.15 1451.02 L2220.03 1451.02 L2220.03 1473.54 L2224.96 1473.54 L2224.96 1477.43 L2220.03 1477.43 L2220.03 1485.58 L2215.38 1485.58 L2215.38 1477.43 L2199.78 1477.43 L2199.78 1472.92 L2214.15 1451.02 Z" fill="#000000" fill-rule="nonzero" fill-opacity="1" /><path clip-path="url(#clip170)" d="M2242.69 1454.1 Q2239.08 1454.1 2237.25 1457.66 Q2235.45 1461.2 2235.45 1468.33 Q2235.45 1475.44 2237.25 1479.01 Q2239.08 1482.55 2242.69 1482.55 Q2246.33 1482.55 2248.13 1479.01 Q2249.96 1475.44 2249.96 1468.33 Q2249.96 1461.2 2248.13 1457.66 Q2246.33 1454.1 2242.69 1454.1 M2242.69 1450.39 Q2248.5 1450.39 2251.56 1455 Q2254.64 1459.58 2254.64 1468.33 Q2254.64 1477.06 2251.56 1481.67 Q2248.5 1486.25 2242.69 1486.25 Q2236.88 1486.25 2233.8 1481.67 Q2230.75 1477.06 2230.75 1468.33 Q2230.75 1459.58 2233.8 1455 Q2236.88 1450.39 2242.69 1450.39 Z" fill="#000000" fill-rule="nonzero" fill-opacity="1" /><path clip-path="url(#clip170)" d="M2272.85 1454.1 Q2269.24 1454.1 2267.42 1457.66 Q2265.61 1461.2 2265.61 1468.33 Q2265.61 1475.44 2267.42 1479.01 Q2269.24 1482.55 2272.85 1482.55 Q2276.49 1482.55 2278.29 1479.01 Q2280.12 1475.44 2280.12 1468.33 Q2280.12 1461.2 2278.29 1457.66 Q2276.49 1454.1 2272.85 1454.1 M2272.85 1450.39 Q2278.67 1450.39 2281.72 1455 Q2284.8 1459.58 2284.8 1468.33 Q2284.8 1477.06 2281.72 1481.67 Q2278.67 1486.25 2272.85 1486.25 Q2267.04 1486.25 2263.97 1481.67 Q2260.91 1477.06 2260.91 1468.33 Q2260.91 1459.58 2263.97 1455 Q2267.04 1450.39 2272.85 1450.39 Z" fill="#000000" fill-rule="nonzero" fill-opacity="1" /><path clip-path="url(#clip170)" d="M1197.68 1548.76 L1197.68 1551.62 L1170.75 1551.62 Q1171.14 1557.67 1174.38 1560.85 Q1177.66 1564 1183.49 1564 Q1186.86 1564 1190.01 1563.17 Q1193.19 1562.35 1196.31 1560.69 L1196.31 1566.23 Q1193.16 1567.57 1189.85 1568.27 Q1186.54 1568.97 1183.14 1568.97 Q1174.61 1568.97 1169.61 1564 Q1164.64 1559.04 1164.64 1550.57 Q1164.64 1541.82 1169.35 1536.69 Q1174.1 1531.54 1182.12 1531.54 Q1189.31 1531.54 1193.48 1536.18 Q1197.68 1540.8 1197.68 1548.76 M1191.83 1547.04 Q1191.76 1542.23 1189.12 1539.37 Q1186.51 1536.5 1182.18 1536.5 Q1177.28 1536.5 1174.32 1539.27 Q1171.39 1542.04 1170.95 1547.07 L1191.83 1547.04 Z" fill="#000000" fill-rule="nonzero" fill-opacity="1" /><path clip-path="url(#clip170)" d="M1212.96 1562.7 L1212.96 1581.6 L1207.07 1581.6 L1207.07 1532.4 L1212.96 1532.4 L1212.96 1537.81 Q1214.81 1534.62 1217.61 1533.1 Q1220.44 1531.54 1224.35 1531.54 Q1230.85 1531.54 1234.89 1536.69 Q1238.96 1541.85 1238.96 1550.25 Q1238.96 1558.65 1234.89 1563.81 Q1230.85 1568.97 1224.35 1568.97 Q1220.44 1568.97 1217.61 1567.44 Q1214.81 1565.88 1212.96 1562.7 M1232.88 1550.25 Q1232.88 1543.79 1230.21 1540.13 Q1227.57 1536.44 1222.92 1536.44 Q1218.27 1536.44 1215.6 1540.13 Q1212.96 1543.79 1212.96 1550.25 Q1212.96 1556.71 1215.6 1560.4 Q1218.27 1564.07 1222.92 1564.07 Q1227.57 1564.07 1230.21 1560.4 Q1232.88 1556.71 1232.88 1550.25 Z" fill="#000000" fill-rule="nonzero" fill-opacity="1" /><path clip-path="url(#clip170)" d="M1262.48 1536.5 Q1257.77 1536.5 1255.04 1540.19 Q1252.3 1543.85 1252.3 1550.25 Q1252.3 1556.65 1255 1560.34 Q1257.74 1564 1262.48 1564 Q1267.16 1564 1269.9 1560.31 Q1272.64 1556.62 1272.64 1550.25 Q1272.64 1543.92 1269.9 1540.23 Q1267.16 1536.5 1262.48 1536.5 M1262.48 1531.54 Q1270.12 1531.54 1274.48 1536.5 Q1278.84 1541.47 1278.84 1550.25 Q1278.84 1559 1274.48 1564 Q1270.12 1568.97 1262.48 1568.97 Q1254.81 1568.97 1250.45 1564 Q1246.12 1559 1246.12 1550.25 Q1246.12 1541.47 1250.45 1536.5 Q1254.81 1531.54 1262.48 1531.54 Z" fill="#000000" fill-rule="nonzero" fill-opacity="1" /><path clip-path="url(#clip170)" d="M1314.21 1533.76 L1314.21 1539.24 Q1311.72 1537.87 1309.21 1537.2 Q1306.73 1536.5 1304.18 1536.5 Q1298.48 1536.5 1295.33 1540.13 Q1292.18 1543.73 1292.18 1550.25 Q1292.18 1556.78 1295.33 1560.4 Q1298.48 1564 1304.18 1564 Q1306.73 1564 1309.21 1563.33 Q1311.72 1562.63 1314.21 1561.26 L1314.21 1566.68 Q1311.76 1567.82 1309.11 1568.39 Q1306.5 1568.97 1303.54 1568.97 Q1295.49 1568.97 1290.75 1563.91 Q1286.01 1558.85 1286.01 1550.25 Q1286.01 1541.53 1290.78 1536.53 Q1295.59 1531.54 1303.93 1531.54 Q1306.63 1531.54 1309.21 1532.11 Q1311.79 1532.65 1314.21 1533.76 Z" fill="#000000" fill-rule="nonzero" fill-opacity="1" /><path clip-path="url(#clip170)" d="M1354.02 1546.53 L1354.02 1568.04 L1348.17 1568.04 L1348.17 1546.72 Q1348.17 1541.66 1346.19 1539.14 Q1344.22 1536.63 1340.27 1536.63 Q1335.53 1536.63 1332.79 1539.65 Q1330.06 1542.68 1330.06 1547.9 L1330.06 1568.04 L1324.17 1568.04 L1324.17 1518.52 L1330.06 1518.52 L1330.06 1537.93 Q1332.16 1534.72 1334.99 1533.13 Q1337.85 1531.54 1341.58 1531.54 Q1347.72 1531.54 1350.87 1535.36 Q1354.02 1539.14 1354.02 1546.53 Z" fill="#000000" fill-rule="nonzero" fill-opacity="1" /><path clip-path="url(#clip170)" d="M1388.43 1533.45 L1388.43 1538.98 Q1385.95 1537.71 1383.27 1537.07 Q1380.6 1536.44 1377.74 1536.44 Q1373.38 1536.44 1371.18 1537.77 Q1369.01 1539.11 1369.01 1541.79 Q1369.01 1543.82 1370.57 1545 Q1372.13 1546.15 1376.84 1547.2 L1378.85 1547.64 Q1385.09 1548.98 1387.7 1551.43 Q1390.34 1553.85 1390.34 1558.21 Q1390.34 1563.17 1386.39 1566.07 Q1382.48 1568.97 1375.6 1568.97 Q1372.74 1568.97 1369.62 1568.39 Q1366.53 1567.85 1363.09 1566.74 L1363.09 1560.69 Q1366.34 1562.38 1369.49 1563.24 Q1372.64 1564.07 1375.73 1564.07 Q1379.87 1564.07 1382.1 1562.66 Q1384.32 1561.23 1384.32 1558.65 Q1384.32 1556.27 1382.7 1554.99 Q1381.11 1553.72 1375.67 1552.54 L1373.63 1552.07 Q1368.19 1550.92 1365.77 1548.56 Q1363.35 1546.18 1363.35 1542.04 Q1363.35 1537.01 1366.91 1534.27 Q1370.48 1531.54 1377.04 1531.54 Q1380.28 1531.54 1383.15 1532.01 Q1386.01 1532.49 1388.43 1533.45 Z" fill="#000000" fill-rule="nonzero" fill-opacity="1" /><polyline clip-path="url(#clip170)" style="stroke:#000000; stroke-linecap:round; stroke-linejoin:round; stroke-width:4; stroke-opacity:1; fill:none" points="202.227,1423.18 202.227,47.2441 "/>
<polyline clip-path="url(#clip170)" style="stroke:#000000; stroke-linecap:round; stroke-linejoin:round; stroke-width:4; stroke-opacity:1; fill:none" points="202.227,1169.21 221.125,1169.21 "/>
<polyline clip-path="url(#clip170)" style="stroke:#000000; stroke-linecap:round; stroke-linejoin:round; stroke-width:4; stroke-opacity:1; fill:none" points="202.227,801.663 221.125,801.663 "/>
<polyline clip-path="url(#clip170)" style="stroke:#000000; stroke-linecap:round; stroke-linejoin:round; stroke-width:4; stroke-opacity:1; fill:none" points="202.227,434.12 221.125,434.12 "/>
<polyline clip-path="url(#clip170)" style="stroke:#000000; stroke-linecap:round; stroke-linejoin:round; stroke-width:4; stroke-opacity:1; fill:none" points="202.227,66.5766 221.125,66.5766 "/>
<path clip-path="url(#clip170)" d="M156.644 1156 L144.839 1174.45 L156.644 1174.45 L156.644 1156 M155.417 1151.93 L161.297 1151.93 L161.297 1174.45 L166.227 1174.45 L166.227 1178.34 L161.297 1178.34 L161.297 1186.49 L156.644 1186.49 L156.644 1178.34 L141.042 1178.34 L141.042 1173.82 L155.417 1151.93 Z" fill="#000000" fill-rule="nonzero" fill-opacity="1" /><path clip-path="url(#clip170)" d="M154.7 799.799 Q151.552 799.799 149.7 801.952 Q147.871 804.105 147.871 807.855 Q147.871 811.582 149.7 813.758 Q151.552 815.91 154.7 815.91 Q157.848 815.91 159.677 813.758 Q161.528 811.582 161.528 807.855 Q161.528 804.105 159.677 801.952 Q157.848 799.799 154.7 799.799 M163.982 785.147 L163.982 789.406 Q162.223 788.572 160.417 788.133 Q158.635 787.693 156.876 787.693 Q152.246 787.693 149.792 790.818 Q147.362 793.943 147.015 800.262 Q148.38 798.248 150.441 797.184 Q152.501 796.096 154.978 796.096 Q160.186 796.096 163.195 799.267 Q166.227 802.415 166.227 807.855 Q166.227 813.179 163.079 816.396 Q159.931 819.614 154.7 819.614 Q148.704 819.614 145.533 815.031 Q142.362 810.424 142.362 801.697 Q142.362 793.503 146.251 788.642 Q150.14 783.758 156.69 783.758 Q158.45 783.758 160.232 784.105 Q162.038 784.452 163.982 785.147 Z" fill="#000000" fill-rule="nonzero" fill-opacity="1" /><path clip-path="url(#clip170)" d="M154.376 434.988 Q151.042 434.988 149.121 436.77 Q147.223 438.552 147.223 441.677 Q147.223 444.802 149.121 446.585 Q151.042 448.367 154.376 448.367 Q157.709 448.367 159.63 446.585 Q161.552 444.779 161.552 441.677 Q161.552 438.552 159.63 436.77 Q157.732 434.988 154.376 434.988 M149.7 432.997 Q146.691 432.256 145.001 430.196 Q143.334 428.136 143.334 425.173 Q143.334 421.029 146.274 418.622 Q149.237 416.215 154.376 416.215 Q159.538 416.215 162.477 418.622 Q165.417 421.029 165.417 425.173 Q165.417 428.136 163.727 430.196 Q162.061 432.256 159.075 432.997 Q162.454 433.784 164.329 436.076 Q166.227 438.367 166.227 441.677 Q166.227 446.701 163.149 449.386 Q160.093 452.071 154.376 452.071 Q148.658 452.071 145.579 449.386 Q142.524 446.701 142.524 441.677 Q142.524 438.367 144.422 436.076 Q146.32 433.784 149.7 432.997 M147.987 425.613 Q147.987 428.298 149.653 429.803 Q151.343 431.307 154.376 431.307 Q157.385 431.307 159.075 429.803 Q160.788 428.298 160.788 425.613 Q160.788 422.928 159.075 421.423 Q157.385 419.918 154.376 419.918 Q151.343 419.918 149.653 421.423 Q147.987 422.928 147.987 425.613 Z" fill="#000000" fill-rule="nonzero" fill-opacity="1" /><path clip-path="url(#clip170)" d="M114.931 79.9214 L122.57 79.9214 L122.57 53.5558 L114.26 55.2225 L114.26 50.9632 L122.524 49.2966 L127.2 49.2966 L127.2 79.9214 L134.839 79.9214 L134.839 83.8566 L114.931 83.8566 L114.931 79.9214 Z" fill="#000000" fill-rule="nonzero" fill-opacity="1" /><path clip-path="url(#clip170)" d="M154.283 52.3752 Q150.672 52.3752 148.843 55.94 Q147.038 59.4817 147.038 66.6113 Q147.038 73.7177 148.843 77.2825 Q150.672 80.8242 154.283 80.8242 Q157.917 80.8242 159.723 77.2825 Q161.552 73.7177 161.552 66.6113 Q161.552 59.4817 159.723 55.94 Q157.917 52.3752 154.283 52.3752 M154.283 48.6716 Q160.093 48.6716 163.149 53.278 Q166.227 57.8613 166.227 66.6113 Q166.227 75.3381 163.149 79.9445 Q160.093 84.5279 154.283 84.5279 Q148.473 84.5279 145.394 79.9445 Q142.339 75.3381 142.339 66.6113 Q142.339 57.8613 145.394 53.278 Q148.473 48.6716 154.283 48.6716 Z" fill="#000000" fill-rule="nonzero" fill-opacity="1" /><path clip-path="url(#clip170)" d="M14.479 793.506 L14.479 787.649 L64.0042 787.649 L64.0042 793.506 L14.479 793.506 Z" fill="#000000" fill-rule="nonzero" fill-opacity="1" /><path clip-path="url(#clip170)" d="M32.4621 761.582 Q32.4621 766.293 36.1542 769.03 Q39.8145 771.767 46.212 771.767 Q52.6095 771.767 56.3017 769.062 Q59.9619 766.324 59.9619 761.582 Q59.9619 756.903 56.2698 754.166 Q52.5777 751.429 46.212 751.429 Q39.8781 751.429 36.186 754.166 Q32.4621 756.903 32.4621 761.582 M27.4968 761.582 Q27.4968 753.943 32.4621 749.583 Q37.4273 745.222 46.212 745.222 Q54.9649 745.222 59.9619 749.583 Q64.9272 753.943 64.9272 761.582 Q64.9272 769.253 59.9619 773.613 Q54.9649 777.942 46.212 777.942 Q37.4273 777.942 32.4621 773.613 Q27.4968 769.253 27.4968 761.582 Z" fill="#000000" fill-rule="nonzero" fill-opacity="1" /><path clip-path="url(#clip170)" d="M29.4065 712.789 L34.9447 712.789 Q33.6716 715.271 33.035 717.945 Q32.3984 720.619 32.3984 723.483 Q32.3984 727.844 33.7352 730.04 Q35.072 732.204 37.7456 732.204 Q39.7826 732.204 40.9603 730.645 Q42.1061 729.085 43.1565 724.374 L43.6021 722.369 Q44.9389 716.131 47.3897 713.521 Q49.8086 710.879 54.1691 710.879 Q59.1344 710.879 62.0308 714.826 Q64.9272 718.741 64.9272 725.616 Q64.9272 728.48 64.3543 731.599 Q63.8132 734.687 62.6992 738.124 L56.6518 738.124 Q58.3387 734.878 59.198 731.727 Q60.0256 728.576 60.0256 725.488 Q60.0256 721.351 58.6251 719.123 Q57.1929 716.895 54.6147 716.895 Q52.2276 716.895 50.9545 718.518 Q49.6813 720.109 48.5037 725.552 L48.0262 727.589 Q46.8804 733.032 44.5251 735.451 Q42.138 737.87 38.0002 737.87 Q32.9713 737.87 30.2341 734.305 Q27.4968 730.74 27.4968 724.183 Q27.4968 720.937 27.9743 718.072 Q28.4517 715.208 29.4065 712.789 Z" fill="#000000" fill-rule="nonzero" fill-opacity="1" /><path clip-path="url(#clip170)" d="M29.4065 678.828 L34.9447 678.828 Q33.6716 681.31 33.035 683.984 Q32.3984 686.658 32.3984 689.522 Q32.3984 693.883 33.7352 696.079 Q35.072 698.243 37.7456 698.243 Q39.7826 698.243 40.9603 696.684 Q42.1061 695.124 43.1565 690.413 L43.6021 688.408 Q44.9389 682.17 47.3897 679.56 Q49.8086 676.918 54.1691 676.918 Q59.1344 676.918 62.0308 680.865 Q64.9272 684.78 64.9272 691.655 Q64.9272 694.519 64.3543 697.638 Q63.8132 700.726 62.6992 704.163 L56.6518 704.163 Q58.3387 700.917 59.198 697.766 Q60.0256 694.615 60.0256 691.527 Q60.0256 687.39 58.6251 685.162 Q57.1929 682.934 54.6147 682.934 Q52.2276 682.934 50.9545 684.557 Q49.6813 686.148 48.5037 691.591 L48.0262 693.628 Q46.8804 699.071 44.5251 701.49 Q42.138 703.909 38.0002 703.909 Q32.9713 703.909 30.2341 700.344 Q27.4968 696.779 27.4968 690.222 Q27.4968 686.976 27.9743 684.111 Q28.4517 681.247 29.4065 678.828 Z" fill="#000000" fill-rule="nonzero" fill-opacity="1" /><polyline clip-path="url(#clip172)" style="stroke:#229ebc; stroke-linecap:round; stroke-linejoin:round; stroke-width:4; stroke-opacity:1; fill:none" points="263.091,86.1857 268.052,159.525 273.012,232.599 277.973,309.318 282.933,390.623 287.893,468.169 292.854,538.521 297.814,600.537 302.775,656.19 307.735,711.611 312.695,762.874 317.656,808.5 322.616,849.627 327.577,885.507 332.537,916.167 337.497,941.574 342.458,963.844 347.418,982.105 352.379,998.092 357.339,1012.22 362.299,1024.56 367.26,1036.56 372.22,1047.13 377.181,1056.94 382.141,1065.5 387.101,1074.79 392.062,1081.34 397.022,1091.35 401.982,1098.39 406.943,1106.28 411.903,1112.91 416.864,1119.73 421.824,1125.76 426.784,1132.05 431.745,1137.7 436.705,1143.06 441.666,1148.72 446.626,1154.23 451.586,1158.47 456.547,1164.19 461.507,1169.09 466.468,1174 471.428,1178.4 476.388,1182.38 481.349,1187.48 486.309,1192.02 491.27,1195.98 496.23,1200.76 501.19,1205.46 506.151,1209.8 511.111,1214.25 516.071,1218.65 521.032,1223.02 525.992,1225.87 530.953,1230.87 535.913,1235.03 540.873,1239.04 545.834,1242.61 550.794,1246.25 555.755,1249.63 560.715,1252.98 565.675,1255.92 570.636,1258.31 575.596,1261.95 580.557,1265.16 585.517,1267.15 590.477,1270.65 595.438,1273.13 600.398,1276.23 605.359,1278.63 610.319,1281.12 615.279,1283.66 620.24,1286.11 625.2,1288.55 630.161,1290.71 635.121,1292.74 640.081,1294.88 645.042,1297.41 650.002,1299.5 654.962,1301.6 659.923,1304.01 664.883,1306.06 669.844,1307.87 674.804,1309.85 679.764,1311.33 684.725,1313.28 689.685,1315.31 694.646,1316.68 699.606,1318.81 704.566,1320.42 709.527,1321.14 714.487,1323.26 719.448,1324.53 724.408,1325.97 729.368,1327.17 734.329,1328.5 739.289,1329.4 744.25,1330.92 749.21,1332.23 754.17,1333.08 759.131,1334.16 764.091,1335.35 769.051,1336.57 774.012,1337.28 778.972,1338.09 783.933,1339.29 788.893,1339.78 793.853,1340.76 798.814,1341.43 803.774,1342.41 808.735,1342.92 813.695,1344.05 818.655,1344.18 823.616,1345.1 828.576,1345.1 833.537,1346.44 838.497,1346.74 843.457,1347.56 848.418,1348.1 853.378,1348.77 858.339,1349.01 863.299,1349.22 868.259,1349.41 873.22,1350.53 878.18,1350.6 883.141,1351.31 888.101,1351.77 893.061,1351.85 898.022,1352.62 902.982,1352.62 907.942,1353.46 912.903,1353.59 917.863,1353.71 922.824,1354.44 927.784,1354.61 932.744,1354.5 937.705,1355.33 942.665,1355.58 947.626,1355.53 952.586,1356.26 957.546,1356.34 962.507,1356.79 967.467,1354.28 972.428,1357.15 977.388,1357.54 982.348,1357.7 987.309,1357.82 992.269,1357.8 997.23,1358.61 1002.19,1358.4 1007.15,1358.99 1012.11,1358.95 1017.07,1358.98 1022.03,1359.74 1026.99,1360.05 1031.95,1360.08 1036.91,1359.45 1041.87,1360.54 1046.83,1360.56 1051.79,1361.02 1056.75,1361.17 1061.71,1361.11 1066.68,1361.76 1071.64,1361.05 1076.6,1362.01 1081.56,1362.3 1086.52,1362.59 1091.48,1362.7 1096.44,1362.76 1101.4,1362.88 1106.36,1362.99 1111.32,1363.34 1116.28,1363.64 1121.24,1363.66 1126.2,1363.37 1131.16,1364.2 1136.12,1364.24 1141.08,1364.27 1146.04,1364.31 1151,1364.6 1155.96,1364.94 1160.92,1365.08 1165.88,1365.31 1170.84,1365.2 1175.8,1365.66 1180.76,1365.54 1185.72,1365.81 1190.68,1366.02 1195.65,1366.11 1200.61,1366.26 1205.57,1366.37 1210.53,1366.48 1215.49,1366.79 1220.45,1366.75 1225.41,1367.16 1230.37,1367.19 1235.33,1367.35 1240.29,1367.45 1245.25,1367.33 1250.21,1367.89 1255.17,1367.91 1260.13,1368.24 1265.09,1368.21 1270.05,1367.98 1275.01,1368.46 1279.97,1368.38 1284.93,1368.92 1289.89,1369.06 1294.85,1368.04 1299.81,1368.89 1304.77,1369.2 1309.73,1369.37 1314.69,1369.67 1319.66,1369.66 1324.62,1369.67 1329.58,1369.86 1334.54,1369.8 1339.5,1369.93 1344.46,1370.15 1349.42,1370.44 1354.38,1370.69 1359.34,1370.56 1364.3,1370.61 1369.26,1370.92 1374.22,1371.05 1379.18,1371.15 1384.14,1371.33 1389.1,1371.31 1394.06,1370.51 1399.02,1371.52 1403.98,1371.64 1408.94,1371.44 1413.9,1371.7 1418.86,1371.87 1423.82,1372.04 1428.78,1372.29 1433.74,1372.41 1438.7,1372.38 1443.66,1372.54 1448.63,1372.4 1453.59,1372.58 1458.55,1372.92 1463.51,1371.73 1468.47,1372.74 1473.43,1373.09 1478.39,1373.32 1483.35,1370.75 1488.31,1373.51 1493.27,1373.43 1498.23,1373.64 1503.19,1373.71 1508.15,1373.83 1513.11,1373.45 1518.07,1373.98 1523.03,1374.2 1527.99,1374 1532.95,1374.12 1537.91,1374.24 1542.87,1374.32 1547.83,1374.16 1552.79,1374.51 1557.75,1374.35 1562.71,1373.92 1567.67,1374.86 1572.64,1374.54 1577.6,1375.07 1582.56,1374.74 1587.52,1375.23 1592.48,1374.99 1597.44,1375.3 1602.4,1375.46 1607.36,1375.01 1612.32,1375.29 1617.28,1375.46 1622.24,1375.9 1627.2,1375.47 1632.16,1376.01 1637.12,1375.43 1642.08,1375.66 1647.04,1376.23 1652,1375.92 1656.96,1376.22 1661.92,1376.19 1666.88,1376.51 1671.84,1376.77 1676.8,1376.3 1681.76,1376.59 1686.72,1376.71 1691.68,1376.98 1696.64,1376.65 1701.61,1377.19 1706.57,1377.34 1711.53,1377.41 1716.49,1377.37 1721.45,1377.52 1726.41,1377.53 1731.37,1377.54 1736.33,1377.66 1741.29,1377.63 1746.25,1377.1 1751.21,1377.75 1756.17,1377.77 1761.13,1377.95 1766.09,1378.17 1771.05,1378.09 1776.01,1378.02 1780.97,1378.28 1785.93,1378.49 1790.89,1378.23 1795.85,1378.16 1800.81,1378.17 1805.77,1377.79 1810.73,1378.89 1815.69,1378.79 1820.65,1378.55 1825.62,1378.76 1830.58,1378.82 1835.54,1378.92 1840.5,1379.07 1845.46,1379.37 1850.42,1378.98 1855.38,1379.29 1860.34,1379.53 1865.3,1379.56 1870.26,1379.18 1875.22,1379.63 1880.18,1379.57 1885.14,1379.47 1890.1,1379.66 1895.06,1379.89 1900.02,1378.53 1904.98,1380 1909.94,1379.63 1914.9,1379.88 1919.86,1380.22 1924.82,1380.03 1929.78,1380.26 1934.74,1380.4 1939.7,1380.22 1944.66,1380.55 1949.62,1380.53 1954.59,1379.95 1959.55,1380.79 1964.51,1379.94 1969.47,1381.05 1974.43,1380.72 1979.39,1381.03 1984.35,1381.06 1989.31,1381.09 1994.27,1380.6 1999.23,1380.93 2004.19,1381.42 2009.15,1381.49 2014.11,1381.04 2019.07,1381.13 2024.03,1381.48 2028.99,1381.61 2033.95,1381.56 2038.91,1381.68 2043.87,1381.78 2048.83,1381.41 2053.79,1381.58 2058.75,1381.92 2063.71,1381.79 2068.67,1381.9 2073.63,1382.29 2078.6,1382.31 2083.56,1382.21 2088.52,1381.76 2093.48,1382.08 2098.44,1381.96 2103.4,1382.41 2108.36,1382.53 2113.32,1382.37 2118.28,1382.28 2123.24,1382.6 2128.2,1382.55 2133.16,1382.52 2138.12,1382.66 2143.08,1382.81 2148.04,1382.82 2153,1382.98 2157.96,1382.82 2162.92,1383.1 2167.88,1382.42 2172.84,1382.84 2177.8,1383.2 2182.76,1383.11 2187.72,1382.16 2192.68,1383.15 2197.64,1382.88 2202.6,1383.4 2207.57,1383.42 2212.53,1383.54 2217.49,1383.37 2222.45,1382.26 2227.41,1383.76 2232.37,1383.63 2237.33,1383.85 2242.29,1383.64 2247.25,1383.88 2252.21,1384.03 2257.17,1383.99 2262.13,1384.03 2267.09,1384.01 2272.05,1384.13 2277.01,1384.03 2281.97,1383.69 2286.93,1384.24 2291.89,1384.18 "/>
<polyline clip-path="url(#clip172)" style="stroke:#fb8500; stroke-linecap:round; stroke-linejoin:round; stroke-width:4; stroke-opacity:1; fill:none" points="263.091,88.8577 268.052,162.018 273.012,235.169 277.973,312.33 282.933,395.16 287.893,475.622 292.854,550.241 297.814,615.698 302.775,673.307 307.735,731.076 312.695,782.363 317.656,828.269 322.616,871.052 327.577,907.313 332.537,936.174 337.497,961.642 342.458,980.757 347.418,996.837 352.379,1011.36 357.339,1022.24 362.299,1031.6 367.26,1040.26 372.22,1051.13 377.181,1054.54 382.141,1064.02 387.101,1071.65 392.062,1082.63 397.022,1087.33 401.982,1089.65 406.943,1097.29 411.903,1101.73 416.864,1110.01 421.824,1118.89 426.784,1122.96 431.745,1126.3 436.705,1126.24 441.666,1140.09 446.626,1141.07 451.586,1151.13 456.547,1153.84 461.507,1156.36 466.468,1159.42 471.428,1166.49 476.388,1162.42 481.349,1170.86 486.309,1178.75 491.27,1184.83 496.23,1189.54 501.19,1190.71 506.151,1196.48 511.111,1201.46 516.071,1204.53 521.032,1208.73 525.992,1212.63 530.953,1220.34 535.913,1220.83 540.873,1225.56 545.834,1227.69 550.794,1234.44 555.755,1235.25 560.715,1240.24 565.675,1238.44 570.636,1245.47 575.596,1246.42 580.557,1252.95 585.517,1249.33 590.477,1255.98 595.438,1261.73 600.398,1261.6 605.359,1266.67 610.319,1265.62 615.279,1269.74 620.24,1270.68 625.2,1273.33 630.161,1276.55 635.121,1281.21 640.081,1281.13 645.042,1285.32 650.002,1287.91 654.962,1287.74 659.923,1289.55 664.883,1293.8 669.844,1296.25 674.804,1299.15 679.764,1298.05 684.725,1302 689.685,1303.34 694.646,1304.52 699.606,1307.96 704.566,1309.13 709.527,1308.63 714.487,1312.87 719.448,1312.8 724.408,1316.09 729.368,1316.12 734.329,1319.18 739.289,1320.03 744.25,1318.91 749.21,1321.41 754.17,1324.89 759.131,1326.06 764.091,1323.99 769.051,1326.43 774.012,1328.27 778.972,1326.22 783.933,1330.99 788.893,1329.37 793.853,1330.17 798.814,1334.09 803.774,1334.87 808.735,1332.27 813.695,1335.46 818.655,1337.26 823.616,1336.54 828.576,1337.31 833.537,1338.62 838.497,1339.47 843.457,1340.77 848.418,1340.59 853.378,1340.46 858.339,1340.91 863.299,1339.97 868.259,1343.79 873.22,1342.76 878.18,1342.88 883.141,1342.85 888.101,1345.09 893.061,1343.89 898.022,1346.09 902.982,1345.17 907.942,1346.31 912.903,1346.56 917.863,1345.86 922.824,1347.91 927.784,1346.55 932.744,1349.36 937.705,1349.35 942.665,1347.65 947.626,1349.29 952.586,1349.89 957.546,1348.41 962.507,1349.99 967.467,1350.06 972.428,1349.92 977.388,1351.32 982.348,1350.13 987.309,1352.12 992.269,1352.93 997.23,1352.13 1002.19,1352.54 1007.15,1352.01 1012.11,1352.4 1017.07,1352.42 1022.03,1354.35 1026.99,1353.23 1031.95,1352.24 1036.91,1350.6 1041.87,1353.17 1046.83,1353.6 1051.79,1353.88 1056.75,1354 1061.71,1354.02 1066.68,1354.49 1071.64,1354.41 1076.6,1355.43 1081.56,1357.07 1086.52,1355.92 1091.48,1355.74 1096.44,1356.54 1101.4,1357.54 1106.36,1357.47 1111.32,1357.38 1116.28,1357.33 1121.24,1357.86 1126.2,1357.71 1131.16,1358 1136.12,1358.61 1141.08,1358.54 1146.04,1359.16 1151,1359.52 1155.96,1358.36 1160.92,1359.63 1165.88,1358.29 1170.84,1357.36 1175.8,1359.36 1180.76,1361.1 1185.72,1360.76 1190.68,1359.51 1195.65,1359.64 1200.61,1359.53 1205.57,1360.99 1210.53,1361.7 1215.49,1360.64 1220.45,1359.34 1225.41,1361.7 1230.37,1361.91 1235.33,1360.98 1240.29,1361.47 1245.25,1361.77 1250.21,1362.2 1255.17,1363.33 1260.13,1362.26 1265.09,1362.2 1270.05,1360.45 1275.01,1362.29 1279.97,1362.8 1284.93,1363.2 1289.89,1363.75 1294.85,1360.36 1299.81,1361.61 1304.77,1361.98 1309.73,1362.64 1314.69,1364.49 1319.66,1364.61 1324.62,1363.46 1329.58,1363.76 1334.54,1365.21 1339.5,1362.61 1344.46,1365.24 1349.42,1364.31 1354.38,1365.07 1359.34,1366.06 1364.3,1365.06 1369.26,1365.06 1374.22,1365.79 1379.18,1364.99 1384.14,1365.61 1389.1,1364.79 1394.06,1364.14 1399.02,1365.57 1403.98,1366.58 1408.94,1367.51 1413.9,1366.89 1418.86,1366.25 1423.82,1365.93 1428.78,1366.4 1433.74,1367.32 1438.7,1367.6 1443.66,1367.36 1448.63,1367.12 1453.59,1366.39 1458.55,1367.55 1463.51,1365.54 1468.47,1367 1473.43,1367.5 1478.39,1368.27 1483.35,1368.92 1488.31,1367.73 1493.27,1366.87 1498.23,1368.36 1503.19,1368.72 1508.15,1367.59 1513.11,1368.11 1518.07,1367.96 1523.03,1368.19 1527.99,1368.38 1532.95,1367.24 1537.91,1368.83 1542.87,1368.37 1547.83,1366.97 1552.79,1368.63 1557.75,1369.48 1562.71,1369.88 1567.67,1368.7 1572.64,1368.36 1577.6,1368.45 1582.56,1369.88 1587.52,1369.31 1592.48,1367.86 1597.44,1369.23 1602.4,1368.38 1607.36,1367.28 1612.32,1367.54 1617.28,1369.89 1622.24,1368.43 1627.2,1370.44 1632.16,1368.86 1637.12,1369.08 1642.08,1367.84 1647.04,1368.34 1652,1370.42 1656.96,1370.07 1661.92,1370.34 1666.88,1369.4 1671.84,1369.95 1676.8,1368.64 1681.76,1369.91 1686.72,1369.49 1691.68,1369.48 1696.64,1370.11 1701.61,1369.61 1706.57,1369.94 1711.53,1370.06 1716.49,1370.1 1721.45,1370.57 1726.41,1370.52 1731.37,1370.7 1736.33,1370.77 1741.29,1370.31 1746.25,1368.25 1751.21,1371.09 1756.17,1370.57 1761.13,1371.34 1766.09,1370.52 1771.05,1370.91 1776.01,1370.94 1780.97,1371.94 1785.93,1371.44 1790.89,1370.97 1795.85,1371.85 1800.81,1372.34 1805.77,1371.34 1810.73,1371.22 1815.69,1371.74 1820.65,1372.79 1825.62,1370.94 1830.58,1372.16 1835.54,1370.4 1840.5,1370.96 1845.46,1372.54 1850.42,1372.54 1855.38,1373.17 1860.34,1372.24 1865.3,1372.55 1870.26,1371.29 1875.22,1372.36 1880.18,1372.83 1885.14,1372.77 1890.1,1371.72 1895.06,1370.89 1900.02,1370.14 1904.98,1371.32 1909.94,1370.96 1914.9,1373.04 1919.86,1373.01 1924.82,1373.14 1929.78,1373.29 1934.74,1372.26 1939.7,1372.53 1944.66,1373.13 1949.62,1372.32 1954.59,1373.7 1959.55,1373.03 1964.51,1374.51 1969.47,1373.54 1974.43,1372.9 1979.39,1373.16 1984.35,1373.29 1989.31,1373.19 1994.27,1369.86 1999.23,1373.69 2004.19,1372.79 2009.15,1372.44 2014.11,1371.91 2019.07,1371.95 2024.03,1374.54 2028.99,1372.59 2033.95,1374.61 2038.91,1374.09 2043.87,1374.33 2048.83,1372.55 2053.79,1372.18 2058.75,1373.86 2063.71,1374.58 2068.67,1371.81 2073.63,1373.12 2078.6,1373.17 2083.56,1374.51 2088.52,1374.08 2093.48,1374.46 2098.44,1375.05 2103.4,1372.8 2108.36,1373.01 2113.32,1373.91 2118.28,1372.32 2123.24,1373.41 2128.2,1373.38 2133.16,1374.26 2138.12,1374.32 2143.08,1373.66 2148.04,1375.1 2153,1373.63 2157.96,1372.47 2162.92,1373.77 2167.88,1375.36 2172.84,1373.97 2177.8,1374.86 2182.76,1375.27 2187.72,1370.81 2192.68,1374.81 2197.64,1371.72 2202.6,1373.95 2207.57,1374.16 2212.53,1374.33 2217.49,1374.3 2222.45,1371.48 2227.41,1374.85 2232.37,1374.7 2237.33,1374.59 2242.29,1374 2247.25,1374.76 2252.21,1374.38 2257.17,1374.79 2262.13,1374.55 2267.09,1374.32 2272.05,1374.15 2277.01,1373.86 2281.97,1374.86 2286.93,1374.72 2291.89,1374.81 "/>
<path clip-path="url(#clip170)" d="M1838.06 248.629 L2281.07 248.629 L2281.07 93.1086 L1838.06 93.1086  Z" fill="#ffffff" fill-rule="evenodd" fill-opacity="1"/>
<polyline clip-path="url(#clip170)" style="stroke:#000000; stroke-linecap:round; stroke-linejoin:round; stroke-width:4; stroke-opacity:1; fill:none" points="1838.06,248.629 2281.07,248.629 2281.07,93.1086 1838.06,93.1086 1838.06,248.629 "/>
<polyline clip-path="url(#clip170)" style="stroke:#229ebc; stroke-linecap:round; stroke-linejoin:round; stroke-width:4; stroke-opacity:1; fill:none" points="1861.95,144.949 2005.32,144.949 "/>
<path clip-path="url(#clip170)" d="M2036.62 128.942 L2036.62 136.303 L2045.4 136.303 L2045.4 139.613 L2036.62 139.613 L2036.62 153.687 Q2036.62 156.858 2037.48 157.761 Q2038.36 158.664 2041.02 158.664 L2045.4 158.664 L2045.4 162.229 L2041.02 162.229 Q2036.09 162.229 2034.22 160.4 Q2032.34 158.548 2032.34 153.687 L2032.34 139.613 L2029.22 139.613 L2029.22 136.303 L2032.34 136.303 L2032.34 128.942 L2036.62 128.942 Z" fill="#000000" fill-rule="nonzero" fill-opacity="1" /><path clip-path="url(#clip170)" d="M2066.02 140.284 Q2065.3 139.868 2064.45 139.682 Q2063.61 139.474 2062.59 139.474 Q2058.98 139.474 2057.04 141.835 Q2055.12 144.173 2055.12 148.571 L2055.12 162.229 L2050.84 162.229 L2050.84 136.303 L2055.12 136.303 L2055.12 140.331 Q2056.46 137.969 2058.61 136.835 Q2060.77 135.678 2063.84 135.678 Q2064.28 135.678 2064.82 135.747 Q2065.35 135.794 2066 135.909 L2066.02 140.284 Z" fill="#000000" fill-rule="nonzero" fill-opacity="1" /><path clip-path="url(#clip170)" d="M2082.27 149.196 Q2077.11 149.196 2075.12 150.377 Q2073.13 151.557 2073.13 154.405 Q2073.13 156.673 2074.61 158.016 Q2076.11 159.335 2078.68 159.335 Q2082.22 159.335 2084.35 156.835 Q2086.51 154.312 2086.51 150.145 L2086.51 149.196 L2082.27 149.196 M2090.77 147.437 L2090.77 162.229 L2086.51 162.229 L2086.51 158.293 Q2085.05 160.655 2082.87 161.789 Q2080.7 162.9 2077.55 162.9 Q2073.57 162.9 2071.21 160.678 Q2068.87 158.432 2068.87 154.682 Q2068.87 150.307 2071.78 148.085 Q2074.72 145.863 2080.53 145.863 L2086.51 145.863 L2086.51 145.446 Q2086.51 142.507 2084.56 140.909 Q2082.64 139.289 2079.15 139.289 Q2076.92 139.289 2074.82 139.821 Q2072.71 140.354 2070.77 141.419 L2070.77 137.483 Q2073.1 136.581 2075.3 136.141 Q2077.5 135.678 2079.59 135.678 Q2085.21 135.678 2087.99 138.594 Q2090.77 141.511 2090.77 147.437 Z" fill="#000000" fill-rule="nonzero" fill-opacity="1" /><path clip-path="url(#clip170)" d="M2099.54 136.303 L2103.8 136.303 L2103.8 162.229 L2099.54 162.229 L2099.54 136.303 M2099.54 126.21 L2103.8 126.21 L2103.8 131.604 L2099.54 131.604 L2099.54 126.21 Z" fill="#000000" fill-rule="nonzero" fill-opacity="1" /><path clip-path="url(#clip170)" d="M2134.26 146.581 L2134.26 162.229 L2130 162.229 L2130 146.719 Q2130 143.039 2128.57 141.21 Q2127.13 139.382 2124.26 139.382 Q2120.81 139.382 2118.82 141.581 Q2116.83 143.78 2116.83 147.576 L2116.83 162.229 L2112.55 162.229 L2112.55 136.303 L2116.83 136.303 L2116.83 140.331 Q2118.36 137.993 2120.42 136.835 Q2122.5 135.678 2125.21 135.678 Q2129.68 135.678 2131.97 138.456 Q2134.26 141.21 2134.26 146.581 Z" fill="#000000" fill-rule="nonzero" fill-opacity="1" /><path clip-path="url(#clip170)" d="M2142.76 136.303 L2147.02 136.303 L2147.02 162.229 L2142.76 162.229 L2142.76 136.303 M2142.76 126.21 L2147.02 126.21 L2147.02 131.604 L2142.76 131.604 L2142.76 126.21 Z" fill="#000000" fill-rule="nonzero" fill-opacity="1" /><path clip-path="url(#clip170)" d="M2177.48 146.581 L2177.48 162.229 L2173.22 162.229 L2173.22 146.719 Q2173.22 143.039 2171.78 141.21 Q2170.35 139.382 2167.48 139.382 Q2164.03 139.382 2162.04 141.581 Q2160.05 143.78 2160.05 147.576 L2160.05 162.229 L2155.77 162.229 L2155.77 136.303 L2160.05 136.303 L2160.05 140.331 Q2161.58 137.993 2163.64 136.835 Q2165.72 135.678 2168.43 135.678 Q2172.89 135.678 2175.19 138.456 Q2177.48 141.21 2177.48 146.581 Z" fill="#000000" fill-rule="nonzero" fill-opacity="1" /><path clip-path="url(#clip170)" d="M2203.03 148.965 Q2203.03 144.335 2201.11 141.789 Q2199.21 139.243 2195.77 139.243 Q2192.34 139.243 2190.42 141.789 Q2188.52 144.335 2188.52 148.965 Q2188.52 153.571 2190.42 156.118 Q2192.34 158.664 2195.77 158.664 Q2199.21 158.664 2201.11 156.118 Q2203.03 153.571 2203.03 148.965 M2207.29 159.011 Q2207.29 165.631 2204.35 168.849 Q2201.41 172.09 2195.35 172.09 Q2193.1 172.09 2191.11 171.742 Q2189.12 171.418 2187.25 170.724 L2187.25 166.58 Q2189.12 167.599 2190.95 168.085 Q2192.78 168.571 2194.68 168.571 Q2198.87 168.571 2200.95 166.372 Q2203.03 164.196 2203.03 159.775 L2203.03 157.668 Q2201.71 159.96 2199.65 161.094 Q2197.59 162.229 2194.72 162.229 Q2189.96 162.229 2187.04 158.594 Q2184.12 154.96 2184.12 148.965 Q2184.12 142.946 2187.04 139.312 Q2189.96 135.678 2194.72 135.678 Q2197.59 135.678 2199.65 136.812 Q2201.71 137.946 2203.03 140.238 L2203.03 136.303 L2207.29 136.303 L2207.29 159.011 Z" fill="#000000" fill-rule="nonzero" fill-opacity="1" /><polyline clip-path="url(#clip170)" style="stroke:#fb8500; stroke-linecap:round; stroke-linejoin:round; stroke-width:4; stroke-opacity:1; fill:none" points="1861.95,196.789 2005.32,196.789 "/>
<path clip-path="url(#clip170)" d="M2029.22 188.143 L2033.73 188.143 L2041.83 209.902 L2049.93 188.143 L2054.45 188.143 L2044.72 214.069 L2038.94 214.069 L2029.22 188.143 Z" fill="#000000" fill-rule="nonzero" fill-opacity="1" /><path clip-path="url(#clip170)" d="M2072.11 201.036 Q2066.95 201.036 2064.96 202.217 Q2062.96 203.397 2062.96 206.245 Q2062.96 208.513 2064.45 209.856 Q2065.95 211.175 2068.52 211.175 Q2072.06 211.175 2074.19 208.675 Q2076.34 206.152 2076.34 201.985 L2076.34 201.036 L2072.11 201.036 M2080.6 199.277 L2080.6 214.069 L2076.34 214.069 L2076.34 210.133 Q2074.89 212.495 2072.71 213.629 Q2070.53 214.74 2067.39 214.74 Q2063.4 214.74 2061.04 212.518 Q2058.71 210.272 2058.71 206.522 Q2058.71 202.147 2061.62 199.925 Q2064.56 197.703 2070.37 197.703 L2076.34 197.703 L2076.34 197.286 Q2076.34 194.347 2074.4 192.749 Q2072.48 191.129 2068.98 191.129 Q2066.76 191.129 2064.65 191.661 Q2062.55 192.194 2060.6 193.259 L2060.6 189.323 Q2062.94 188.421 2065.14 187.981 Q2067.34 187.518 2069.42 187.518 Q2075.05 187.518 2077.83 190.434 Q2080.6 193.351 2080.6 199.277 Z" fill="#000000" fill-rule="nonzero" fill-opacity="1" /><path clip-path="url(#clip170)" d="M2089.38 178.05 L2093.64 178.05 L2093.64 214.069 L2089.38 214.069 L2089.38 178.05 Z" fill="#000000" fill-rule="nonzero" fill-opacity="1" /><path clip-path="url(#clip170)" d="M2102.55 188.143 L2106.81 188.143 L2106.81 214.069 L2102.55 214.069 L2102.55 188.143 M2102.55 178.05 L2106.81 178.05 L2106.81 183.444 L2102.55 183.444 L2102.55 178.05 Z" fill="#000000" fill-rule="nonzero" fill-opacity="1" /><path clip-path="url(#clip170)" d="M2132.78 192.078 L2132.78 178.05 L2137.04 178.05 L2137.04 214.069 L2132.78 214.069 L2132.78 210.18 Q2131.44 212.495 2129.38 213.629 Q2127.34 214.74 2124.47 214.74 Q2119.77 214.74 2116.81 210.99 Q2113.87 207.24 2113.87 201.129 Q2113.87 195.018 2116.81 191.268 Q2119.77 187.518 2124.47 187.518 Q2127.34 187.518 2129.38 188.652 Q2131.44 189.763 2132.78 192.078 M2118.27 201.129 Q2118.27 205.828 2120.19 208.513 Q2122.13 211.175 2125.51 211.175 Q2128.89 211.175 2130.83 208.513 Q2132.78 205.828 2132.78 201.129 Q2132.78 196.43 2130.83 193.768 Q2128.89 191.083 2125.51 191.083 Q2122.13 191.083 2120.19 193.768 Q2118.27 196.43 2118.27 201.129 Z" fill="#000000" fill-rule="nonzero" fill-opacity="1" /><path clip-path="url(#clip170)" d="M2157.59 201.036 Q2152.43 201.036 2150.44 202.217 Q2148.45 203.397 2148.45 206.245 Q2148.45 208.513 2149.93 209.856 Q2151.44 211.175 2154.01 211.175 Q2157.55 211.175 2159.68 208.675 Q2161.83 206.152 2161.83 201.985 L2161.83 201.036 L2157.59 201.036 M2166.09 199.277 L2166.09 214.069 L2161.83 214.069 L2161.83 210.133 Q2160.37 212.495 2158.2 213.629 Q2156.02 214.74 2152.87 214.74 Q2148.89 214.74 2146.53 212.518 Q2144.19 210.272 2144.19 206.522 Q2144.19 202.147 2147.11 199.925 Q2150.05 197.703 2155.86 197.703 L2161.83 197.703 L2161.83 197.286 Q2161.83 194.347 2159.89 192.749 Q2157.96 191.129 2154.47 191.129 Q2152.25 191.129 2150.14 191.661 Q2148.03 192.194 2146.09 193.259 L2146.09 189.323 Q2148.43 188.421 2150.63 187.981 Q2152.83 187.518 2154.91 187.518 Q2160.53 187.518 2163.31 190.434 Q2166.09 193.351 2166.09 199.277 Z" fill="#000000" fill-rule="nonzero" fill-opacity="1" /><path clip-path="url(#clip170)" d="M2179.08 180.782 L2179.08 188.143 L2187.85 188.143 L2187.85 191.453 L2179.08 191.453 L2179.08 205.527 Q2179.08 208.698 2179.93 209.601 Q2180.81 210.504 2183.47 210.504 L2187.85 210.504 L2187.85 214.069 L2183.47 214.069 Q2178.54 214.069 2176.67 212.24 Q2174.79 210.388 2174.79 205.527 L2174.79 191.453 L2171.67 191.453 L2171.67 188.143 L2174.79 188.143 L2174.79 180.782 L2179.08 180.782 Z" fill="#000000" fill-rule="nonzero" fill-opacity="1" /><path clip-path="url(#clip170)" d="M2193.45 188.143 L2197.71 188.143 L2197.71 214.069 L2193.45 214.069 L2193.45 188.143 M2193.45 178.05 L2197.71 178.05 L2197.71 183.444 L2193.45 183.444 L2193.45 178.05 Z" fill="#000000" fill-rule="nonzero" fill-opacity="1" /><path clip-path="url(#clip170)" d="M2216.67 191.129 Q2213.24 191.129 2211.25 193.814 Q2209.26 196.476 2209.26 201.129 Q2209.26 205.782 2211.23 208.467 Q2213.22 211.129 2216.67 211.129 Q2220.07 211.129 2222.06 208.444 Q2224.05 205.758 2224.05 201.129 Q2224.05 196.522 2222.06 193.837 Q2220.07 191.129 2216.67 191.129 M2216.67 187.518 Q2222.22 187.518 2225.39 191.129 Q2228.57 194.74 2228.57 201.129 Q2228.57 207.495 2225.39 211.129 Q2222.22 214.74 2216.67 214.74 Q2211.09 214.74 2207.92 211.129 Q2204.77 207.495 2204.77 201.129 Q2204.77 194.74 2207.92 191.129 Q2211.09 187.518 2216.67 187.518 Z" fill="#000000" fill-rule="nonzero" fill-opacity="1" /><path clip-path="url(#clip170)" d="M2257.18 198.421 L2257.18 214.069 L2252.92 214.069 L2252.92 198.559 Q2252.92 194.879 2251.48 193.05 Q2250.05 191.222 2247.18 191.222 Q2243.73 191.222 2241.74 193.421 Q2239.75 195.62 2239.75 199.416 L2239.75 214.069 L2235.46 214.069 L2235.46 188.143 L2239.75 188.143 L2239.75 192.171 Q2241.27 189.833 2243.33 188.675 Q2245.42 187.518 2248.13 187.518 Q2252.59 187.518 2254.89 190.296 Q2257.18 193.05 2257.18 198.421 Z" fill="#000000" fill-rule="nonzero" fill-opacity="1" /></svg>
